<svg width="233" height="41" viewBox="0 0 233 41" fill="none" xmlns="http://www.w3.org/2000/svg">
<rect width="233" height="41" rx="6.15122" fill="#232323"/>
<path d="M13.2695 18.2852H14.6099V26.0928H13.2695V18.2852ZM13.2695 15.3335H14.6099V16.8276H13.2695V15.3335ZM16.6094 18.2485H17.9131V19.3618C18.2256 18.9761 18.5088 18.6953 18.7627 18.5195C19.1973 18.2217 19.6904 18.0728 20.2422 18.0728C20.8672 18.0728 21.3701 18.2266 21.751 18.5342C21.9658 18.71 22.1611 18.9688 22.3369 19.3105C22.6299 18.8906 22.9741 18.5806 23.3696 18.3804C23.7651 18.1753 24.2095 18.0728 24.7026 18.0728C25.7573 18.0728 26.4751 18.4536 26.856 19.2153C27.061 19.6255 27.1636 20.1772 27.1636 20.8706V26.0928H25.7939V20.6436C25.7939 20.1211 25.6621 19.7622 25.3984 19.5669C25.1396 19.3716 24.8223 19.2739 24.4463 19.2739C23.9287 19.2739 23.4819 19.4473 23.106 19.7939C22.7349 20.1406 22.5493 20.7192 22.5493 21.5298V26.0928H21.209V20.9731C21.209 20.4409 21.1455 20.0527 21.0186 19.8086C20.8184 19.4424 20.4448 19.2593 19.8979 19.2593C19.3999 19.2593 18.9458 19.4521 18.5356 19.8379C18.1304 20.2236 17.9277 20.9219 17.9277 21.9326V26.0928H16.6094V18.2485ZM32.415 25.2065C33.0303 25.2065 33.5405 24.9502 33.9458 24.4375C34.356 23.9199 34.561 23.1484 34.561 22.123C34.561 21.498 34.4707 20.9609 34.29 20.5117C33.9482 19.6475 33.3232 19.2153 32.415 19.2153C31.502 19.2153 30.877 19.6719 30.54 20.585C30.3594 21.0732 30.269 21.6934 30.269 22.4453C30.269 23.0508 30.3594 23.5659 30.54 23.9907C30.8818 24.8013 31.5068 25.2065 32.415 25.2065ZM29.002 18.2852H30.2837V19.3252C30.5474 18.9688 30.8354 18.6929 31.1479 18.4976C31.5923 18.2046 32.1147 18.0581 32.7153 18.0581C33.604 18.0581 34.3584 18.3999 34.9785 19.0835C35.5986 19.7622 35.9087 20.7339 35.9087 21.9985C35.9087 23.7075 35.4619 24.9282 34.5684 25.6606C34.002 26.1245 33.3428 26.3564 32.5908 26.3564C32 26.3564 31.5044 26.2271 31.104 25.9683C30.8696 25.8218 30.6084 25.5703 30.3203 25.2139V29.2202H29.002V18.2852ZM40.5669 25.2432C41.4409 25.2432 42.0391 24.9136 42.3613 24.2544C42.6885 23.5903 42.8521 22.853 42.8521 22.0425C42.8521 21.3101 42.7349 20.7144 42.5005 20.2554C42.1294 19.5327 41.4897 19.1714 40.5815 19.1714C39.7759 19.1714 39.1899 19.479 38.8237 20.0942C38.4575 20.7095 38.2744 21.4517 38.2744 22.3208C38.2744 23.1558 38.4575 23.8516 38.8237 24.4082C39.1899 24.9648 39.771 25.2432 40.5669 25.2432ZM40.6182 18.0215C41.6289 18.0215 42.4834 18.3584 43.1816 19.0322C43.8799 19.7061 44.229 20.6973 44.229 22.0059C44.229 23.2705 43.9214 24.3154 43.3062 25.1406C42.6909 25.9658 41.7363 26.3784 40.4424 26.3784C39.3633 26.3784 38.5063 26.0146 37.8716 25.2871C37.2368 24.5547 36.9194 23.5732 36.9194 22.3428C36.9194 21.0244 37.2539 19.9746 37.9229 19.1934C38.5918 18.4121 39.4902 18.0215 40.6182 18.0215ZM45.8403 18.2485H47.0928V19.6035C47.1953 19.3398 47.4468 19.02 47.8472 18.644C48.2476 18.2632 48.709 18.0728 49.2314 18.0728C49.2559 18.0728 49.2974 18.0752 49.356 18.0801C49.4146 18.085 49.5146 18.0947 49.6562 18.1094V19.501C49.5781 19.4863 49.5049 19.4766 49.4365 19.4717C49.373 19.4668 49.3022 19.4644 49.2241 19.4644C48.5601 19.4644 48.0498 19.6792 47.6934 20.1089C47.3369 20.5337 47.1587 21.0244 47.1587 21.5811V26.0928H45.8403V18.2485ZM51.0625 16.0586H52.3955V18.2485H53.6479V19.3252H52.3955V24.4448C52.3955 24.7183 52.4883 24.9014 52.6738 24.9941C52.7764 25.0479 52.9473 25.0747 53.1865 25.0747C53.25 25.0747 53.3184 25.0747 53.3916 25.0747C53.4648 25.0698 53.5503 25.0625 53.6479 25.0527V26.0928C53.4966 26.1367 53.3379 26.1685 53.1719 26.188C53.0107 26.2075 52.835 26.2173 52.6445 26.2173C52.0293 26.2173 51.6118 26.061 51.3921 25.7485C51.1724 25.4312 51.0625 25.021 51.0625 24.5181V19.3252H50.0005V18.2485H51.0625V16.0586ZM59.9321 23.6318C59.9712 24.0713 60.0811 24.4082 60.2617 24.6426C60.5938 25.0674 61.1699 25.2798 61.9902 25.2798C62.4785 25.2798 62.9082 25.1748 63.2793 24.9648C63.6504 24.75 63.8359 24.4204 63.8359 23.9761C63.8359 23.6392 63.687 23.3828 63.3892 23.207C63.1987 23.0996 62.8228 22.9751 62.2612 22.8335L61.2139 22.5698C60.5449 22.4038 60.0518 22.2183 59.7344 22.0132C59.168 21.6567 58.8848 21.1636 58.8848 20.5337C58.8848 19.7915 59.1509 19.1909 59.6831 18.7319C60.2202 18.2729 60.9404 18.0435 61.8438 18.0435C63.0254 18.0435 63.8774 18.3901 64.3999 19.0835C64.7271 19.5229 64.8857 19.9966 64.876 20.5044H63.6309C63.6064 20.2065 63.5015 19.9355 63.3159 19.6914C63.0132 19.3447 62.4883 19.1714 61.7412 19.1714C61.2432 19.1714 60.8647 19.2666 60.606 19.457C60.3521 19.6475 60.2251 19.8989 60.2251 20.2114C60.2251 20.5532 60.3936 20.8267 60.7305 21.0317C60.9258 21.1538 61.2139 21.2612 61.5947 21.354L62.4663 21.5664C63.4136 21.7959 64.0483 22.0181 64.3706 22.2329C64.8833 22.5698 65.1396 23.0996 65.1396 23.8223C65.1396 24.5205 64.8735 25.1235 64.3413 25.6313C63.814 26.1392 63.0083 26.3931 61.9243 26.3931C60.7573 26.3931 59.9297 26.1294 59.4414 25.6021C58.958 25.0698 58.6992 24.4131 58.665 23.6318H59.9321ZM66.9121 16.0586H68.2451V18.2485H69.4976V19.3252H68.2451V24.4448C68.2451 24.7183 68.3379 24.9014 68.5234 24.9941C68.626 25.0479 68.7969 25.0747 69.0361 25.0747C69.0996 25.0747 69.168 25.0747 69.2412 25.0747C69.3145 25.0698 69.3999 25.0625 69.4976 25.0527V26.0928C69.3462 26.1367 69.1875 26.1685 69.0215 26.188C68.8604 26.2075 68.6846 26.2173 68.4941 26.2173C67.8789 26.2173 67.4614 26.061 67.2417 25.7485C67.022 25.4312 66.9121 25.021 66.9121 24.5181V19.3252H65.8501V18.2485H66.9121V16.0586ZM74.0898 18.0728C74.6465 18.0728 75.186 18.2046 75.7085 18.4683C76.231 18.7271 76.6289 19.064 76.9023 19.479C77.166 19.8745 77.3418 20.3359 77.4297 20.8633C77.5078 21.2246 77.5469 21.8008 77.5469 22.5918H71.7974C71.8218 23.3877 72.0098 24.0273 72.3613 24.5107C72.7129 24.9893 73.2573 25.2285 73.9946 25.2285C74.6831 25.2285 75.2324 25.0015 75.6426 24.5474C75.877 24.2837 76.043 23.9785 76.1406 23.6318H77.437C77.4028 23.9199 77.2881 24.2422 77.0928 24.5986C76.9023 24.9502 76.6875 25.2383 76.4482 25.4629C76.0479 25.8535 75.5522 26.1172 74.9614 26.2539C74.644 26.332 74.2852 26.3711 73.8848 26.3711C72.9082 26.3711 72.0806 26.0171 71.4019 25.3091C70.7231 24.5962 70.3838 23.6001 70.3838 22.3208C70.3838 21.061 70.7256 20.0381 71.4092 19.252C72.0928 18.4658 72.9863 18.0728 74.0898 18.0728ZM76.1919 21.5444C76.1382 20.9731 76.0137 20.5166 75.8184 20.1748C75.457 19.54 74.854 19.2227 74.0093 19.2227C73.4038 19.2227 72.896 19.4424 72.4858 19.8818C72.0757 20.3164 71.8584 20.8706 71.834 21.5444H76.1919ZM80.1836 24.0054C80.1836 24.3862 80.3228 24.6865 80.6011 24.9062C80.8794 25.126 81.209 25.2358 81.5898 25.2358C82.0537 25.2358 82.5029 25.1284 82.9375 24.9136C83.6699 24.5571 84.0361 23.9736 84.0361 23.1631V22.1011C83.875 22.2036 83.6675 22.2891 83.4136 22.3574C83.1597 22.4258 82.9106 22.4746 82.6665 22.5039L81.8682 22.6064C81.3896 22.6699 81.0308 22.77 80.7915 22.9067C80.3862 23.1362 80.1836 23.5024 80.1836 24.0054ZM83.377 21.3394C83.6797 21.3003 83.8823 21.1733 83.9849 20.9585C84.0435 20.8413 84.0728 20.6729 84.0728 20.4531C84.0728 20.0039 83.9116 19.6792 83.5894 19.479C83.272 19.2739 82.8154 19.1714 82.2197 19.1714C81.5312 19.1714 81.043 19.3569 80.7549 19.728C80.5938 19.9331 80.4888 20.2383 80.4399 20.6436H79.2095C79.2339 19.6768 79.5464 19.0054 80.147 18.6294C80.7524 18.2485 81.4531 18.0581 82.249 18.0581C83.1719 18.0581 83.9214 18.2339 84.4976 18.5854C85.0688 18.937 85.3545 19.4839 85.3545 20.2261V24.7451C85.3545 24.8818 85.3813 24.9917 85.4351 25.0747C85.4937 25.1577 85.6133 25.1992 85.7939 25.1992C85.8525 25.1992 85.9185 25.1968 85.9917 25.1919C86.0649 25.1821 86.1431 25.1699 86.2261 25.1553V26.1294C86.021 26.188 85.8647 26.2246 85.7573 26.2393C85.6499 26.2539 85.5034 26.2612 85.3179 26.2612C84.8638 26.2612 84.5342 26.1001 84.3291 25.7778C84.2217 25.6069 84.146 25.3652 84.1021 25.0527C83.8335 25.4043 83.4478 25.7095 82.9448 25.9683C82.4419 26.2271 81.8877 26.3564 81.2822 26.3564C80.5547 26.3564 79.959 26.1367 79.4951 25.6973C79.0361 25.2529 78.8066 24.6987 78.8066 24.0347C78.8066 23.3071 79.0337 22.7432 79.4878 22.3428C79.9419 21.9424 80.5376 21.6958 81.2749 21.603L83.377 21.3394ZM87.5225 18.2485H88.8262V19.3618C89.1387 18.9761 89.4219 18.6953 89.6758 18.5195C90.1104 18.2217 90.6035 18.0728 91.1553 18.0728C91.7803 18.0728 92.2832 18.2266 92.6641 18.5342C92.8789 18.71 93.0742 18.9688 93.25 19.3105C93.543 18.8906 93.8872 18.5806 94.2827 18.3804C94.6782 18.1753 95.1226 18.0728 95.6157 18.0728C96.6704 18.0728 97.3882 18.4536 97.769 19.2153C97.9741 19.6255 98.0767 20.1772 98.0767 20.8706V26.0928H96.707V20.6436C96.707 20.1211 96.5752 19.7622 96.3115 19.5669C96.0527 19.3716 95.7354 19.2739 95.3594 19.2739C94.8418 19.2739 94.395 19.4473 94.019 19.7939C93.6479 20.1406 93.4624 20.7192 93.4624 21.5298V26.0928H92.1221V20.9731C92.1221 20.4409 92.0586 20.0527 91.9316 19.8086C91.7314 19.4424 91.3579 19.2593 90.811 19.2593C90.313 19.2593 89.8589 19.4521 89.4487 19.8379C89.0435 20.2236 88.8408 20.9219 88.8408 21.9326V26.0928H87.5225V18.2485ZM104.229 15.3335H105.547V26.0928H104.229V15.3335ZM107.532 18.2852H108.873V26.0928H107.532V18.2852ZM107.532 15.3335H108.873V16.8276H107.532V15.3335ZM110.77 15.2969H112.051V19.2007C112.339 18.8247 112.684 18.5391 113.084 18.3438C113.484 18.1436 113.919 18.0435 114.388 18.0435C115.364 18.0435 116.155 18.3804 116.761 19.0542C117.371 19.7231 117.676 20.7119 117.676 22.0205C117.676 23.2607 117.376 24.291 116.775 25.1113C116.175 25.9316 115.342 26.3418 114.278 26.3418C113.682 26.3418 113.179 26.1978 112.769 25.9097C112.525 25.7388 112.264 25.4653 111.985 25.0894V26.0928H110.77V15.2969ZM114.197 25.1772C114.91 25.1772 115.442 24.894 115.794 24.3276C116.15 23.7612 116.329 23.0142 116.329 22.0864C116.329 21.2612 116.15 20.5776 115.794 20.0356C115.442 19.4937 114.922 19.2227 114.234 19.2227C113.633 19.2227 113.106 19.4448 112.652 19.8892C112.203 20.3335 111.978 21.0659 111.978 22.0864C111.978 22.8237 112.071 23.4219 112.256 23.8809C112.603 24.7451 113.25 25.1772 114.197 25.1772ZM119.258 18.2485H120.511V19.6035C120.613 19.3398 120.865 19.02 121.265 18.644C121.666 18.2632 122.127 18.0728 122.649 18.0728C122.674 18.0728 122.715 18.0752 122.774 18.0801C122.833 18.085 122.933 18.0947 123.074 18.1094V19.501C122.996 19.4863 122.923 19.4766 122.854 19.4717C122.791 19.4668 122.72 19.4644 122.642 19.4644C121.978 19.4644 121.468 19.6792 121.111 20.1089C120.755 20.5337 120.577 21.0244 120.577 21.5811V26.0928H119.258V18.2485ZM125.228 24.0054C125.228 24.3862 125.367 24.6865 125.645 24.9062C125.923 25.126 126.253 25.2358 126.634 25.2358C127.098 25.2358 127.547 25.1284 127.981 24.9136C128.714 24.5571 129.08 23.9736 129.08 23.1631V22.1011C128.919 22.2036 128.711 22.2891 128.458 22.3574C128.204 22.4258 127.955 22.4746 127.71 22.5039L126.912 22.6064C126.434 22.6699 126.075 22.77 125.835 22.9067C125.43 23.1362 125.228 23.5024 125.228 24.0054ZM128.421 21.3394C128.724 21.3003 128.926 21.1733 129.029 20.9585C129.087 20.8413 129.117 20.6729 129.117 20.4531C129.117 20.0039 128.956 19.6792 128.633 19.479C128.316 19.2739 127.859 19.1714 127.264 19.1714C126.575 19.1714 126.087 19.3569 125.799 19.728C125.638 19.9331 125.533 20.2383 125.484 20.6436H124.253C124.278 19.6768 124.59 19.0054 125.191 18.6294C125.796 18.2485 126.497 18.0581 127.293 18.0581C128.216 18.0581 128.965 18.2339 129.542 18.5854C130.113 18.937 130.398 19.4839 130.398 20.2261V24.7451C130.398 24.8818 130.425 24.9917 130.479 25.0747C130.538 25.1577 130.657 25.1992 130.838 25.1992C130.896 25.1992 130.962 25.1968 131.036 25.1919C131.109 25.1821 131.187 25.1699 131.27 25.1553V26.1294C131.065 26.188 130.909 26.2246 130.801 26.2393C130.694 26.2539 130.547 26.2612 130.362 26.2612C129.908 26.2612 129.578 26.1001 129.373 25.7778C129.266 25.6069 129.19 25.3652 129.146 25.0527C128.877 25.4043 128.492 25.7095 127.989 25.9683C127.486 26.2271 126.932 26.3564 126.326 26.3564C125.599 26.3564 125.003 26.1367 124.539 25.6973C124.08 25.2529 123.851 24.6987 123.851 24.0347C123.851 23.3071 124.078 22.7432 124.532 22.3428C124.986 21.9424 125.582 21.6958 126.319 21.603L128.421 21.3394ZM132.603 18.2485H133.855V19.6035C133.958 19.3398 134.209 19.02 134.61 18.644C135.01 18.2632 135.472 18.0728 135.994 18.0728C136.019 18.0728 136.06 18.0752 136.119 18.0801C136.177 18.085 136.277 18.0947 136.419 18.1094V19.501C136.341 19.4863 136.268 19.4766 136.199 19.4717C136.136 19.4668 136.065 19.4644 135.987 19.4644C135.323 19.4644 134.812 19.6792 134.456 20.1089C134.1 20.5337 133.921 21.0244 133.921 21.5811V26.0928H132.603V18.2485ZM142.461 18.2485H143.919C143.733 18.7515 143.321 19.8989 142.681 21.6909C142.203 23.0386 141.802 24.1372 141.48 24.9868C140.718 26.9888 140.181 28.2095 139.869 28.6489C139.556 29.0884 139.019 29.3081 138.257 29.3081C138.072 29.3081 137.928 29.3008 137.825 29.2861C137.728 29.2715 137.605 29.2446 137.459 29.2056V28.0044C137.688 28.0679 137.854 28.1069 137.957 28.1216C138.06 28.1362 138.15 28.1436 138.228 28.1436C138.472 28.1436 138.65 28.1021 138.763 28.019C138.88 27.9409 138.978 27.8433 139.056 27.7261C139.08 27.687 139.168 27.4868 139.319 27.1255C139.471 26.7642 139.581 26.4956 139.649 26.3198L136.749 18.2485H138.243L140.345 24.6353L142.461 18.2485Z" fill="white"/>
<g opacity="0.5">
<path d="M217.349 16.4729C218.522 16.4729 219.472 17.4233 219.472 18.5957C219.472 19.7681 218.522 20.7185 217.349 20.7185C216.177 20.7185 215.227 19.7681 215.227 18.5957C215.227 17.4233 216.177 16.4729 217.349 16.4729ZM201.972 16.4729C203.613 16.4729 204.944 17.8035 204.944 19.4448L204.928 19.7566L209.613 22.1693C210.111 21.7917 210.732 21.5676 211.406 21.5676L213.528 18.5957C213.528 16.4854 215.239 14.7747 217.349 14.7747C219.46 14.7747 221.17 16.4854 221.17 18.5957C221.17 20.706 219.46 22.4167 217.349 22.4167L214.377 24.5395C214.377 26.1809 213.047 27.5115 211.406 27.5115C209.764 27.5115 208.434 26.1809 208.434 24.5395C208.434 24.5024 208.434 24.4653 208.436 24.4284L203.595 21.9348C203.128 22.2396 202.571 22.4167 201.972 22.4167C200.331 22.4167 199 21.0862 199 19.4448C199 17.8035 200.331 16.4729 201.972 16.4729ZM212.287 23.5565C212.914 23.8758 213.163 24.6428 212.844 25.2696C212.525 25.8963 211.758 26.1455 211.131 25.8262L209.31 24.8819C209.474 25.8916 210.35 26.6624 211.406 26.6624C212.578 26.6624 213.528 25.712 213.528 24.5395C213.528 23.3672 212.578 22.4167 211.406 22.4167C211.077 22.4167 210.767 22.4912 210.489 22.6241L212.287 23.5565ZM201.972 17.322C200.8 17.322 199.849 18.2724 199.849 19.4448C199.849 20.6172 200.8 21.5676 201.972 21.5676C202.214 21.5676 202.447 21.527 202.664 21.4522L201.255 20.7213C200.628 20.4019 200.379 19.635 200.698 19.0082C201.018 18.3815 201.785 18.1323 202.411 18.4516L204.091 19.3228C204.028 18.2072 203.103 17.322 201.972 17.322ZM217.349 15.6238C215.708 15.6238 214.377 16.9544 214.377 18.5957C214.377 20.2371 215.708 21.5676 217.349 21.5676C218.991 21.5676 220.321 20.2371 220.321 18.5957C220.321 16.9544 218.991 15.6238 217.349 15.6238Z" fill="white"/>
</g>
</svg>
